%TF.GenerationSoftware,KiCad,Pcbnew,(6.0.0-0)*%
%TF.CreationDate,2022-01-22T02:39:02+05:30*%
%TF.ProjectId,Schematics,53636865-6d61-4746-9963-732e6b696361,rev?*%
%TF.SameCoordinates,Original*%
%TF.FileFunction,Legend,Bot*%
%TF.FilePolarity,Positive*%
%FSLAX46Y46*%
G04 Gerber Fmt 4.6, Leading zero omitted, Abs format (unit mm)*
G04 Created by KiCad (PCBNEW (6.0.0-0)) date 2022-01-22 02:39:02*
%MOMM*%
%LPD*%
G01*
G04 APERTURE LIST*
%ADD10C,0.150000*%
%ADD11C,0.120000*%
G04 APERTURE END LIST*
D10*
%TO.C,R4*%
X147404091Y-75031407D02*
X147737425Y-74555217D01*
X147975520Y-75031407D02*
X147975520Y-74031407D01*
X147594567Y-74031407D01*
X147499329Y-74079027D01*
X147451710Y-74126646D01*
X147404091Y-74221884D01*
X147404091Y-74364741D01*
X147451710Y-74459979D01*
X147499329Y-74507598D01*
X147594567Y-74555217D01*
X147975520Y-74555217D01*
X146546948Y-74364741D02*
X146546948Y-75031407D01*
X146785044Y-73983788D02*
X147023139Y-74698074D01*
X146404091Y-74698074D01*
%TO.C,R1*%
X170264091Y-80471407D02*
X170597425Y-79995217D01*
X170835520Y-80471407D02*
X170835520Y-79471407D01*
X170454567Y-79471407D01*
X170359329Y-79519027D01*
X170311710Y-79566646D01*
X170264091Y-79661884D01*
X170264091Y-79804741D01*
X170311710Y-79899979D01*
X170359329Y-79947598D01*
X170454567Y-79995217D01*
X170835520Y-79995217D01*
X169311710Y-80471407D02*
X169883139Y-80471407D01*
X169597425Y-80471407D02*
X169597425Y-79471407D01*
X169692663Y-79614265D01*
X169787901Y-79709503D01*
X169883139Y-79757122D01*
%TO.C,R3*%
X142324091Y-90271407D02*
X142657425Y-89795217D01*
X142895520Y-90271407D02*
X142895520Y-89271407D01*
X142514567Y-89271407D01*
X142419329Y-89319027D01*
X142371710Y-89366646D01*
X142324091Y-89461884D01*
X142324091Y-89604741D01*
X142371710Y-89699979D01*
X142419329Y-89747598D01*
X142514567Y-89795217D01*
X142895520Y-89795217D01*
X141990758Y-89271407D02*
X141371710Y-89271407D01*
X141705044Y-89652360D01*
X141562186Y-89652360D01*
X141466948Y-89699979D01*
X141419329Y-89747598D01*
X141371710Y-89842836D01*
X141371710Y-90080931D01*
X141419329Y-90176169D01*
X141466948Y-90223788D01*
X141562186Y-90271407D01*
X141847901Y-90271407D01*
X141943139Y-90223788D01*
X141990758Y-90176169D01*
%TO.C,SW2*%
X100600758Y-112323788D02*
X100457901Y-112371407D01*
X100219805Y-112371407D01*
X100124567Y-112323788D01*
X100076948Y-112276169D01*
X100029329Y-112180931D01*
X100029329Y-112085693D01*
X100076948Y-111990455D01*
X100124567Y-111942836D01*
X100219805Y-111895217D01*
X100410282Y-111847598D01*
X100505520Y-111799979D01*
X100553139Y-111752360D01*
X100600758Y-111657122D01*
X100600758Y-111561884D01*
X100553139Y-111466646D01*
X100505520Y-111419027D01*
X100410282Y-111371407D01*
X100172186Y-111371407D01*
X100029329Y-111419027D01*
X99695996Y-111371407D02*
X99457901Y-112371407D01*
X99267425Y-111657122D01*
X99076948Y-112371407D01*
X98838853Y-111371407D01*
X98505520Y-111466646D02*
X98457901Y-111419027D01*
X98362663Y-111371407D01*
X98124567Y-111371407D01*
X98029329Y-111419027D01*
X97981710Y-111466646D01*
X97934091Y-111561884D01*
X97934091Y-111657122D01*
X97981710Y-111799979D01*
X98553139Y-112371407D01*
X97934091Y-112371407D01*
%TO.C,R6*%
X135974091Y-85191407D02*
X136307425Y-84715217D01*
X136545520Y-85191407D02*
X136545520Y-84191407D01*
X136164567Y-84191407D01*
X136069329Y-84239027D01*
X136021710Y-84286646D01*
X135974091Y-84381884D01*
X135974091Y-84524741D01*
X136021710Y-84619979D01*
X136069329Y-84667598D01*
X136164567Y-84715217D01*
X136545520Y-84715217D01*
X135116948Y-84191407D02*
X135307425Y-84191407D01*
X135402663Y-84239027D01*
X135450282Y-84286646D01*
X135545520Y-84429503D01*
X135593139Y-84619979D01*
X135593139Y-85000931D01*
X135545520Y-85096169D01*
X135497901Y-85143788D01*
X135402663Y-85191407D01*
X135212186Y-85191407D01*
X135116948Y-85143788D01*
X135069329Y-85096169D01*
X135021710Y-85000931D01*
X135021710Y-84762836D01*
X135069329Y-84667598D01*
X135116948Y-84619979D01*
X135212186Y-84572360D01*
X135402663Y-84572360D01*
X135497901Y-84619979D01*
X135545520Y-84667598D01*
X135593139Y-84762836D01*
%TO.C,R7*%
X133434091Y-80111407D02*
X133767425Y-79635217D01*
X134005520Y-80111407D02*
X134005520Y-79111407D01*
X133624567Y-79111407D01*
X133529329Y-79159027D01*
X133481710Y-79206646D01*
X133434091Y-79301884D01*
X133434091Y-79444741D01*
X133481710Y-79539979D01*
X133529329Y-79587598D01*
X133624567Y-79635217D01*
X134005520Y-79635217D01*
X133100758Y-79111407D02*
X132434091Y-79111407D01*
X132862663Y-80111407D01*
%TO.C,R5*%
X115654091Y-90631407D02*
X115987425Y-90155217D01*
X116225520Y-90631407D02*
X116225520Y-89631407D01*
X115844567Y-89631407D01*
X115749329Y-89679027D01*
X115701710Y-89726646D01*
X115654091Y-89821884D01*
X115654091Y-89964741D01*
X115701710Y-90059979D01*
X115749329Y-90107598D01*
X115844567Y-90155217D01*
X116225520Y-90155217D01*
X114749329Y-89631407D02*
X115225520Y-89631407D01*
X115273139Y-90107598D01*
X115225520Y-90059979D01*
X115130282Y-90012360D01*
X114892186Y-90012360D01*
X114796948Y-90059979D01*
X114749329Y-90107598D01*
X114701710Y-90202836D01*
X114701710Y-90440931D01*
X114749329Y-90536169D01*
X114796948Y-90583788D01*
X114892186Y-90631407D01*
X115130282Y-90631407D01*
X115225520Y-90583788D01*
X115273139Y-90536169D01*
%TO.C,R8*%
X110574091Y-85551407D02*
X110907425Y-85075217D01*
X111145520Y-85551407D02*
X111145520Y-84551407D01*
X110764567Y-84551407D01*
X110669329Y-84599027D01*
X110621710Y-84646646D01*
X110574091Y-84741884D01*
X110574091Y-84884741D01*
X110621710Y-84979979D01*
X110669329Y-85027598D01*
X110764567Y-85075217D01*
X111145520Y-85075217D01*
X110002663Y-84979979D02*
X110097901Y-84932360D01*
X110145520Y-84884741D01*
X110193139Y-84789503D01*
X110193139Y-84741884D01*
X110145520Y-84646646D01*
X110097901Y-84599027D01*
X110002663Y-84551407D01*
X109812186Y-84551407D01*
X109716948Y-84599027D01*
X109669329Y-84646646D01*
X109621710Y-84741884D01*
X109621710Y-84789503D01*
X109669329Y-84884741D01*
X109716948Y-84932360D01*
X109812186Y-84979979D01*
X110002663Y-84979979D01*
X110097901Y-85027598D01*
X110145520Y-85075217D01*
X110193139Y-85170455D01*
X110193139Y-85360931D01*
X110145520Y-85456169D01*
X110097901Y-85503788D01*
X110002663Y-85551407D01*
X109812186Y-85551407D01*
X109716948Y-85503788D01*
X109669329Y-85456169D01*
X109621710Y-85360931D01*
X109621710Y-85170455D01*
X109669329Y-85075217D01*
X109716948Y-85027598D01*
X109812186Y-84979979D01*
D11*
%TO.C,R4*%
X142617425Y-79019027D02*
X142617425Y-75579027D01*
X151857425Y-75579027D02*
X151857425Y-79019027D01*
X141927425Y-77299027D02*
X142617425Y-77299027D01*
X152547425Y-77299027D02*
X151857425Y-77299027D01*
X142617425Y-75579027D02*
X151857425Y-75579027D01*
X151857425Y-79019027D02*
X142617425Y-79019027D01*
%TO.C,R1*%
X174717425Y-75579027D02*
X174717425Y-79019027D01*
X164787425Y-77299027D02*
X165477425Y-77299027D01*
X165477425Y-79019027D02*
X165477425Y-75579027D01*
X165477425Y-75579027D02*
X174717425Y-75579027D01*
X175407425Y-77299027D02*
X174717425Y-77299027D01*
X174717425Y-79019027D02*
X165477425Y-79019027D01*
%TO.C,R3*%
X146777425Y-94259027D02*
X137537425Y-94259027D01*
X147467425Y-92539027D02*
X146777425Y-92539027D01*
X146777425Y-90819027D02*
X146777425Y-94259027D01*
X136847425Y-92539027D02*
X137537425Y-92539027D01*
X137537425Y-90819027D02*
X146777425Y-90819027D01*
X137537425Y-94259027D02*
X137537425Y-90819027D01*
%TO.C,SW2*%
X103617425Y-110769027D02*
X103617425Y-106569027D01*
X103617425Y-106569027D02*
X102417425Y-106569027D01*
X94417425Y-110769027D02*
X94417425Y-106569027D01*
X94117425Y-111069027D02*
X94117425Y-109869027D01*
X95617425Y-110769027D02*
X94417425Y-110769027D01*
X94417425Y-106569027D02*
X95617425Y-106569027D01*
X95317425Y-111069027D02*
X94117425Y-111069027D01*
X102417425Y-110769027D02*
X103617425Y-110769027D01*
%TO.C,R6*%
X130497425Y-87459027D02*
X131187425Y-87459027D01*
X140427425Y-89179027D02*
X131187425Y-89179027D01*
X140427425Y-85739027D02*
X140427425Y-89179027D01*
X131187425Y-85739027D02*
X140427425Y-85739027D01*
X131187425Y-89179027D02*
X131187425Y-85739027D01*
X141117425Y-87459027D02*
X140427425Y-87459027D01*
%TO.C,R7*%
X127957425Y-82379027D02*
X128647425Y-82379027D01*
X138577425Y-82379027D02*
X137887425Y-82379027D01*
X128647425Y-80659027D02*
X137887425Y-80659027D01*
X137887425Y-80659027D02*
X137887425Y-84099027D01*
X137887425Y-84099027D02*
X128647425Y-84099027D01*
X128647425Y-84099027D02*
X128647425Y-80659027D01*
%TO.C,R5*%
X110177425Y-87459027D02*
X110867425Y-87459027D01*
X110867425Y-85739027D02*
X120107425Y-85739027D01*
X120107425Y-89179027D02*
X110867425Y-89179027D01*
X120107425Y-85739027D02*
X120107425Y-89179027D01*
X120797425Y-87459027D02*
X120107425Y-87459027D01*
X110867425Y-89179027D02*
X110867425Y-85739027D01*
%TO.C,R8*%
X115027425Y-84099027D02*
X105787425Y-84099027D01*
X105787425Y-84099027D02*
X105787425Y-80659027D01*
X105097425Y-82379027D02*
X105787425Y-82379027D01*
X115027425Y-80659027D02*
X115027425Y-84099027D01*
X105787425Y-80659027D02*
X115027425Y-80659027D01*
X115717425Y-82379027D02*
X115027425Y-82379027D01*
%TD*%
M02*
