%TF.GenerationSoftware,KiCad,Pcbnew,(6.0.0-0)*%
%TF.CreationDate,2022-01-22T02:41:56+05:30*%
%TF.ProjectId,Schematics,53636865-6d61-4746-9963-732e6b696361,rev?*%
%TF.SameCoordinates,Original*%
%TF.FileFunction,Copper,L1,Top*%
%TF.FilePolarity,Positive*%
%FSLAX46Y46*%
G04 Gerber Fmt 4.6, Leading zero omitted, Abs format (unit mm)*
G04 Created by KiCad (PCBNEW (6.0.0-0)) date 2022-01-22 02:41:56*
%MOMM*%
%LPD*%
G01*
G04 APERTURE LIST*
%TA.AperFunction,NonConductor*%
%ADD10C,0.200000*%
%TD*%
%TA.AperFunction,ComponentPad*%
%ADD11C,1.500000*%
%TD*%
%TA.AperFunction,ComponentPad*%
%ADD12R,2.000000X2.000000*%
%TD*%
%TA.AperFunction,ComponentPad*%
%ADD13C,2.000000*%
%TD*%
%TA.AperFunction,ComponentPad*%
%ADD14O,1.600000X1.600000*%
%TD*%
%TA.AperFunction,ComponentPad*%
%ADD15R,1.800000X1.800000*%
%TD*%
%TA.AperFunction,ComponentPad*%
%ADD16C,1.800000*%
%TD*%
%TA.AperFunction,ComponentPad*%
%ADD17R,1.500000X1.500000*%
%TD*%
%TA.AperFunction,ComponentPad*%
%ADD18R,1.600000X1.600000*%
%TD*%
%TA.AperFunction,ComponentPad*%
%ADD19C,1.600000*%
%TD*%
%TA.AperFunction,ComponentPad*%
%ADD20R,1.400000X1.400000*%
%TD*%
%TA.AperFunction,ComponentPad*%
%ADD21C,1.400000*%
%TD*%
%TA.AperFunction,Conductor*%
%ADD22C,0.250000*%
%TD*%
G04 APERTURE END LIST*
D10*
X180257425Y-100159027D02*
X93897425Y-100149027D01*
X180257425Y-105239027D02*
X180257425Y-135719027D01*
X93897425Y-105239027D02*
X180257425Y-105239027D01*
X93897425Y-69679027D02*
X180257425Y-69679027D01*
X93897425Y-100159027D02*
X93897425Y-69679027D01*
X180257425Y-135719027D02*
X93897425Y-135719027D01*
X93897425Y-135719027D02*
X93897425Y-105239027D01*
X180257425Y-69679027D02*
X180257425Y-100159027D01*
D11*
%TO.P,,10,f*%
%TO.N,Net-(U1-Pad5)*%
X121837425Y-97619027D03*
%TD*%
D12*
%TO.P,BZ1,1,-*%
%TO.N,Net-(BZ1-Pad1)*%
X104057425Y-117939027D03*
D13*
%TO.P,BZ1,2,+*%
%TO.N,GND*%
X104057425Y-125539027D03*
%TD*%
D11*
%TO.P,,11,a*%
%TO.N,Net-(U1-Pad15)*%
X109137425Y-97619027D03*
%TD*%
%TO.P,,2,d*%
%TO.N,Net-(U1-Pad3)*%
X116757425Y-97619027D03*
%TD*%
D14*
%TO.P,,29,GND*%
%TO.N,GND*%
X176447425Y-133603547D03*
%TD*%
D11*
%TO.P,,7,b*%
%TO.N,Net-(U1-Pad1)*%
X111677425Y-97619027D03*
%TD*%
D15*
%TO.P,D2,1,K*%
%TO.N,GND*%
X154857425Y-84919027D03*
D16*
%TO.P,D2,2,A*%
%TO.N,Net-(D2-Pad2)*%
X154857425Y-82379027D03*
%TD*%
D17*
%TO.P,,1,e*%
%TO.N,Net-(U1-Pad4)*%
X119297425Y-97619027D03*
%TD*%
D11*
%TO.P,,4,c*%
%TO.N,Net-(U1-Pad2)*%
X114217425Y-97619027D03*
%TD*%
%TO.P,,5,g*%
%TO.N,Net-(U1-Pad6)*%
X124377425Y-97619027D03*
%TD*%
%TO.P,,3,DPX*%
%TO.N,Net-(U1-Pad7)*%
X126917425Y-97619027D03*
%TD*%
D18*
%TO.P,A1,1,D1/TX*%
%TO.N,unconnected-(A1-Pad1)*%
X138347425Y-128089027D03*
D14*
%TO.P,A1,2,D0/RX*%
%TO.N,unconnected-(A1-Pad2)*%
X140887425Y-128089027D03*
%TO.P,A1,3,~{RESET}*%
%TO.N,unconnected-(A1-Pad3)*%
X143427425Y-128089027D03*
%TO.P,A1,4,GND*%
%TO.N,unconnected-(A1-Pad4)*%
X145967425Y-128089027D03*
%TO.P,A1,5,D2*%
%TO.N,Dat1*%
X148507425Y-128089027D03*
%TO.P,A1,6,D3*%
%TO.N,Dat2*%
X151047425Y-128089027D03*
%TO.P,A1,7,D4*%
%TO.N,Dat3*%
X153587425Y-128089027D03*
%TO.P,A1,8,D5*%
%TO.N,Dat4*%
X156127425Y-128089027D03*
%TO.P,A1,9,D6*%
%TO.N,Net-(A1-Pad9)*%
X158667425Y-128089027D03*
%TO.P,A1,10,D7*%
%TO.N,Net-(A1-Pad10)*%
X161207425Y-128089027D03*
%TO.P,A1,11,D8*%
%TO.N,RCLK*%
X163747425Y-128089027D03*
%TO.P,A1,12,D9*%
%TO.N,Net-(A1-Pad12)*%
X166287425Y-128089027D03*
%TO.P,A1,13,D10*%
%TO.N,unconnected-(A1-Pad13)*%
X168827425Y-128089027D03*
%TO.P,A1,14,D11*%
%TO.N,SER*%
X171367425Y-128089027D03*
%TO.P,A1,15,D12*%
%TO.N,SRCLK*%
X173907425Y-128089027D03*
%TO.P,A1,16,D13*%
%TO.N,unconnected-(A1-Pad16)*%
X173907425Y-112849027D03*
%TO.P,A1,17,3V3*%
%TO.N,unconnected-(A1-Pad17)*%
X171367425Y-112849027D03*
%TO.P,A1,18,AREF*%
%TO.N,unconnected-(A1-Pad18)*%
X168827425Y-112849027D03*
%TO.P,A1,19,A0*%
%TO.N,unconnected-(A1-Pad19)*%
X166287425Y-112849027D03*
%TO.P,A1,20,A1*%
%TO.N,unconnected-(A1-Pad20)*%
X163747425Y-112849027D03*
%TO.P,A1,21,A2*%
%TO.N,unconnected-(A1-Pad21)*%
X161207425Y-112849027D03*
%TO.P,A1,22,A3*%
%TO.N,unconnected-(A1-Pad22)*%
X158667425Y-112849027D03*
%TO.P,A1,23,A4*%
%TO.N,unconnected-(A1-Pad23)*%
X156127425Y-112849027D03*
%TO.P,A1,24,A5*%
%TO.N,unconnected-(A1-Pad24)*%
X153587425Y-112849027D03*
%TO.P,A1,25,A6*%
%TO.N,unconnected-(A1-Pad25)*%
X151047425Y-112849027D03*
%TO.P,A1,26,A7*%
%TO.N,unconnected-(A1-Pad26)*%
X148507425Y-112849027D03*
%TO.P,A1,27,+5V*%
%TO.N,Net-(A1-Pad27)*%
X145967425Y-112849027D03*
%TO.P,A1,28,~{RESET}*%
%TO.N,unconnected-(A1-Pad28)*%
X143427425Y-112849027D03*
%TO.P,A1,29,GND*%
%TO.N,BT GND*%
X140887425Y-112849027D03*
%TO.P,A1,30,VIN*%
%TO.N,Net-(A1-Pad30)*%
X138347425Y-112849027D03*
%TD*%
D19*
%TO.P,R2,1*%
%TO.N,Net-(BZ1-Pad1)*%
X105327425Y-112859027D03*
D14*
%TO.P,R2,2*%
%TO.N,Net-(A1-Pad9)*%
X118027425Y-112859027D03*
%TD*%
D19*
%TO.P,,1*%
%TO.N,D4*%
X143427425Y-97609027D03*
%TD*%
%TO.P,,1*%
%TO.N,D3*%
X140887425Y-97609027D03*
%TD*%
D16*
%TO.P,SW1,1,1*%
%TO.N,Net-(R1-Pad1)*%
X162477425Y-82379027D03*
D15*
X172637425Y-82379027D03*
D16*
%TO.P,SW1,2,2*%
%TO.N,Net-(A1-Pad27)*%
X162477425Y-89999027D03*
X172637425Y-89999027D03*
%TD*%
D14*
%TO.P,,12,D9*%
%TO.N,Net-(A1-Pad12)*%
X166287425Y-97609027D03*
%TD*%
D18*
%TO.P,U1,1,QB*%
%TO.N,Net-(U1-Pad1)*%
X112962425Y-126819027D03*
D14*
%TO.P,U1,2,QC*%
%TO.N,Net-(U1-Pad2)*%
X115502425Y-126819027D03*
%TO.P,U1,3,QD*%
%TO.N,Net-(U1-Pad3)*%
X118042425Y-126819027D03*
%TO.P,U1,4,QE*%
%TO.N,Net-(U1-Pad4)*%
X120582425Y-126819027D03*
%TO.P,U1,5,QF*%
%TO.N,Net-(U1-Pad5)*%
X123122425Y-126819027D03*
%TO.P,U1,6,QG*%
%TO.N,Net-(U1-Pad6)*%
X125662425Y-126819027D03*
%TO.P,U1,7,QH*%
%TO.N,Net-(U1-Pad7)*%
X128202425Y-126819027D03*
%TO.P,U1,8,GND*%
%TO.N,GND*%
X130742425Y-126819027D03*
%TO.P,U1,9,QH'*%
%TO.N,unconnected-(U1-Pad9)*%
X130742425Y-119199027D03*
%TO.P,U1,10,~{SRCLR}*%
%TO.N,Net-(A1-Pad27)*%
X128202425Y-119199027D03*
%TO.P,U1,11,SRCLK*%
%TO.N,SRCLK*%
X125662425Y-119199027D03*
%TO.P,U1,12,RCLK*%
%TO.N,RCLK*%
X123122425Y-119199027D03*
%TO.P,U1,13,~{OE}*%
%TO.N,GND*%
X120582425Y-119199027D03*
%TO.P,U1,14,SER*%
%TO.N,SER*%
X118042425Y-119199027D03*
%TO.P,U1,15,QA*%
%TO.N,Net-(U1-Pad15)*%
X115502425Y-119199027D03*
%TO.P,U1,16,VCC*%
%TO.N,Net-(A1-Pad27)*%
X112962425Y-119199027D03*
%TD*%
%TO.P,,2*%
%TO.N,Net-(A1-Pad27)*%
X171367425Y-97609027D03*
%TD*%
%TO.P,,2*%
%TO.N,GND*%
X176447425Y-97609027D03*
%TD*%
%TO.P,,2*%
%TO.N,Net-(A1-Pad27)*%
X172720000Y-133603547D03*
%TD*%
D17*
%TO.P,U2,1,e*%
%TO.N,Net-(U1-Pad4)*%
X116757425Y-92396527D03*
D11*
%TO.P,U2,2,d*%
%TO.N,Net-(U1-Pad3)*%
X119297425Y-92396527D03*
%TO.P,U2,3,DPX*%
%TO.N,Net-(U1-Pad7)*%
X121837425Y-92396527D03*
%TO.P,U2,4,c*%
%TO.N,Net-(U1-Pad2)*%
X124377425Y-92396527D03*
%TO.P,U2,5,g*%
%TO.N,Net-(U1-Pad6)*%
X126917425Y-92396527D03*
%TO.P,U2,6,CC4*%
%TO.N,Net-(R6-Pad2)*%
X129457425Y-92396527D03*
%TO.P,U2,7,b*%
%TO.N,Net-(U1-Pad1)*%
X129457425Y-77156527D03*
%TO.P,U2,8,CC3*%
%TO.N,Net-(R7-Pad2)*%
X126917425Y-77156527D03*
%TO.P,U2,9,CC2*%
%TO.N,Net-(R5-Pad2)*%
X124377425Y-77156527D03*
%TO.P,U2,10,f*%
%TO.N,Net-(U1-Pad5)*%
X121837425Y-77156527D03*
%TO.P,U2,11,a*%
%TO.N,Net-(U1-Pad15)*%
X119297425Y-77156527D03*
%TO.P,U2,12,CC1*%
%TO.N,Net-(R8-Pad2)*%
X116757425Y-77156527D03*
%TD*%
D19*
%TO.P,,1*%
%TO.N,D2*%
X138347425Y-97609027D03*
%TD*%
%TO.P,,1*%
%TO.N,D1*%
X135807425Y-97609027D03*
%TD*%
D15*
%TO.P,D1,1,K*%
%TO.N,Net-(A1-Pad12)*%
X154857425Y-89999027D03*
D16*
%TO.P,D1,2,A*%
%TO.N,Net-(D1-Pad2)*%
X154857425Y-92539027D03*
%TD*%
D19*
%TO.P,R4,1*%
%TO.N,Net-(D2-Pad2)*%
X153587425Y-77299027D03*
D14*
%TO.P,R4,2*%
%TO.N,Net-(A1-Pad12)*%
X140887425Y-77299027D03*
%TD*%
D19*
%TO.P,R1,1*%
%TO.N,Net-(R1-Pad1)*%
X163747425Y-77299027D03*
D14*
%TO.P,R1,2*%
%TO.N,GND*%
X176447425Y-77299027D03*
%TD*%
D19*
%TO.P,R3,1*%
%TO.N,Net-(D1-Pad2)*%
X148507425Y-92539027D03*
D14*
%TO.P,R3,2*%
%TO.N,Net-(A1-Pad27)*%
X135807425Y-92539027D03*
%TD*%
D20*
%TO.P,SW2,1,A*%
%TO.N,unconnected-(SW2-Pad1)*%
X96517425Y-110319027D03*
D21*
%TO.P,SW2,2,B*%
%TO.N,Net-(SW2-Pad2)*%
X99017425Y-110319027D03*
%TO.P,SW2,3,C*%
%TO.N,Net-(A1-Pad30)*%
X101517425Y-110319027D03*
%TO.P,SW2,4*%
%TO.N,N/C*%
X96517425Y-107019027D03*
%TO.P,SW2,5*%
X99017425Y-107019027D03*
%TO.P,SW2,6*%
X101517425Y-107019027D03*
%TD*%
D19*
%TO.P,R6,1*%
%TO.N,Dat4*%
X142157425Y-87459027D03*
D14*
%TO.P,R6,2*%
%TO.N,Net-(R6-Pad2)*%
X129457425Y-87459027D03*
%TD*%
D19*
%TO.P,R7,1*%
%TO.N,Dat3*%
X139617425Y-82379027D03*
D14*
%TO.P,R7,2*%
%TO.N,Net-(R7-Pad2)*%
X126917425Y-82379027D03*
%TD*%
D19*
%TO.P,R5,1*%
%TO.N,Dat2*%
X109137425Y-87459027D03*
D14*
%TO.P,R5,2*%
%TO.N,Net-(R5-Pad2)*%
X121837425Y-87459027D03*
%TD*%
D19*
%TO.P,R8,1*%
%TO.N,Dat1*%
X104057425Y-82379027D03*
D14*
%TO.P,R8,2*%
%TO.N,Net-(R8-Pad2)*%
X116757425Y-82379027D03*
%TD*%
D22*
%TO.N,Net-(A1-Pad9)*%
X171357425Y-115399027D02*
X158667425Y-128089027D01*
X120142905Y-108203547D02*
X118027425Y-110319027D01*
X177800000Y-115316452D02*
X177717425Y-115399027D01*
X177800000Y-108203547D02*
X177800000Y-115316452D01*
X120142905Y-108203547D02*
X177800000Y-108203547D01*
X118027425Y-110319027D02*
X118027425Y-112859027D01*
X177717425Y-115399027D02*
X171357425Y-115399027D01*
%TO.N,RCLK*%
X129457425Y-120479027D02*
X137222914Y-128244516D01*
X137222914Y-129213538D02*
X162622914Y-129213538D01*
X124402425Y-120479027D02*
X129457425Y-120479027D01*
X123122425Y-119199027D02*
X124402425Y-120479027D01*
X137222914Y-128244516D02*
X137222914Y-129213538D01*
X162622914Y-129213538D02*
X163747425Y-128089027D01*
%TO.N,Net-(A1-Pad27)*%
X135807425Y-93809027D02*
X137077425Y-95079027D01*
X137077425Y-95079027D02*
X159937425Y-95079027D01*
X162477425Y-92539027D02*
X162477425Y-89999027D01*
X135807425Y-92539027D02*
X135807425Y-93809027D01*
X159937425Y-95079027D02*
X162477425Y-92539027D01*
%TO.N,Net-(A1-Pad12)*%
X140887425Y-77299027D02*
X142157425Y-77299027D01*
X142157425Y-77299027D02*
X154857425Y-89999027D01*
%TO.N,SER*%
X128302206Y-120928547D02*
X139678646Y-132304987D01*
X167151465Y-132304987D02*
X171367425Y-128089027D01*
X119771945Y-120928547D02*
X128302206Y-120928547D01*
X118042425Y-119199027D02*
X119771945Y-120928547D01*
X139678646Y-132304987D02*
X167151465Y-132304987D01*
%TO.N,SRCLK*%
X116917914Y-119664816D02*
X118631165Y-121378067D01*
X124537914Y-118074516D02*
X117576636Y-118074516D01*
X118631165Y-121378067D02*
X127816465Y-121378067D01*
X117576636Y-118074516D02*
X116917914Y-118733238D01*
X139192905Y-132754507D02*
X169241945Y-132754507D01*
X125662425Y-119199027D02*
X124537914Y-118074516D01*
X127816465Y-121378067D02*
X139192905Y-132754507D01*
X116917914Y-118733238D02*
X116917914Y-119664816D01*
X169241945Y-132754507D02*
X173907425Y-128089027D01*
%TO.N,Net-(BZ1-Pad1)*%
X105327425Y-112859027D02*
X105327425Y-116669027D01*
X105327425Y-116669027D02*
X104057425Y-117939027D01*
%TO.N,Net-(D1-Pad2)*%
X148507425Y-92539027D02*
X154857425Y-92539027D01*
%TO.N,Net-(D2-Pad2)*%
X154857425Y-78569027D02*
X154857425Y-82379027D01*
X153587425Y-77299027D02*
X154857425Y-78569027D01*
%TO.N,Net-(R1-Pad1)*%
X163747425Y-77289027D02*
X162477425Y-78559027D01*
X162477425Y-78559027D02*
X162477425Y-82379027D01*
X163747425Y-77299027D02*
X163747425Y-77289027D01*
%TO.N,Net-(R5-Pad2)*%
X124377425Y-84919027D02*
X121837425Y-87459027D01*
X124377425Y-77156527D02*
X124377425Y-84919027D01*
%TO.N,Net-(R6-Pad2)*%
X129457425Y-87459027D02*
X129457425Y-92396527D01*
%TO.N,Net-(R7-Pad2)*%
X126917425Y-82379027D02*
X126917425Y-77156527D01*
%TO.N,Net-(R8-Pad2)*%
X116757425Y-77156527D02*
X116757425Y-82379027D01*
%TO.N,Net-(A1-Pad30)*%
X117561636Y-113983538D02*
X137212914Y-113983538D01*
X137212914Y-113983538D02*
X138347425Y-112849027D01*
X101517425Y-110319027D02*
X113897125Y-110319027D01*
X113897125Y-110319027D02*
X117561636Y-113983538D01*
%TD*%
M02*
